<svg preserveAspectRatio="none" width="100%" height="100%" overflow="visible" style="display: block;" viewBox="0 0 19 26" fill="none" xmlns="http://www.w3.org/2000/svg">
<path id="Vector" d="M14.4701 8.68634C13.3248 9.80098 12.2685 11.0017 11.3107 12.2778C11.0656 12.6235 10.816 12.9683 10.575 13.3194C10.3457 13.6791 10.1209 14.0419 9.90733 14.4097C9.01163 16.0186 8.23481 17.7096 7.48027 19.4255L6.3601 22.0145C5.98696 22.8794 5.62059 23.753 5.22411 24.6115L5.21828 24.6242C5.08186 24.9196 4.83238 25.1493 4.52472 25.2627C4.21705 25.3762 3.8764 25.3642 3.5777 25.2293C3.38972 25.1431 3.22633 25.0121 3.10219 24.8481C2.97805 24.6841 2.89706 24.4921 2.86649 24.2895L2.48469 21.6583C2.05706 18.8243 1.63066 15.9876 1.22219 13.1425C0.814811 10.2972 0.424535 7.44433 0.109139 4.56922C0.0254373 3.69785 -0.0101653 2.82261 0.00248911 1.94741C0.000869115 1.11659 0.219533 0.56034 0.517667 0.209217C0.955175 -0.301269 1.49273 0.148022 1.72088 1.27804C1.86556 2.02436 1.96524 2.77852 2.01941 3.53654C2.33046 7.00672 2.86698 10.4535 3.62565 13.8556C3.83154 14.7979 4.08181 15.7737 4.15862 16.7099C4.35842 19.1368 4.80523 21.5415 5.18843 23.952L3.08166 23.6642C3.30965 23.1453 3.54541 22.6305 3.79806 22.1238C4.78642 20.1207 5.67258 18.0482 6.72525 16.034C7.65785 14.2171 8.73132 12.4743 9.93602 10.8213C11.1581 9.17982 12.5227 7.64691 14.0142 6.24005C14.3109 5.9625 14.6102 5.69593 14.9122 5.44358C15.2223 5.20091 15.5359 4.97394 15.8529 4.76269C16.4639 4.35034 17.1238 4.01378 17.8178 3.76055C18.1281 3.64882 18.351 3.69094 18.4467 3.83869C18.5394 3.98309 18.5169 4.24589 18.3036 4.53823C17.9834 4.93069 17.6353 5.30912 17.293 5.69523C16.9532 6.08367 16.6003 6.4633 16.2437 6.8352C15.9619 7.15001 15.6586 7.44973 15.3486 7.74558L15.1157 7.96721L14.8919 8.19601C14.7436 8.34947 14.5956 8.50268 14.4477 8.65563L14.4701 8.68634Z" fill="var(--fill-0, #615FFF)"/>
</svg>
