<svg xmlns="http://www.w3.org/2000/svg" width="127" height="127" viewBox="0 0 127 127" fill="none">
<g clip-path="url(#clip0_1_644)">
<path d="M62.989 90.5101C61.8096 88.2421 60.7119 85.9248 59.7443 83.5463C58.7721 81.165 57.9444 78.7258 57.2654 76.2421C56.5428 73.5964 56.0144 70.8996 55.6844 68.1728C55.2224 64.5173 55.2686 60.8098 55.8217 57.1556C56.1069 55.3156 56.554 53.5026 57.1579 51.7378C57.4621 50.8235 57.8435 49.936 58.2979 49.0849C58.7797 48.1757 59.4075 47.3507 60.156 46.6432C60.5697 46.2565 61.0383 45.9334 61.5463 45.6847C62.114 45.404 62.7389 45.2616 63.3693 45.2694C64.0241 45.2837 64.6611 45.4737 65.2137 45.8195C65.723 46.1394 66.1612 46.5596 66.5021 47.0549C66.8195 47.5108 67.0701 48.0102 67.2464 48.5381C67.4074 49.0304 67.5219 49.5372 67.5885 50.0519C67.7206 51.0032 67.7737 51.9647 67.7471 52.9266C67.6961 54.8277 67.3892 56.7162 66.8347 58.541C66.2786 60.3732 65.4619 62.1185 64.4098 63.723C63.1056 65.7246 61.4084 67.4427 59.4228 68.7714C59.1497 68.948 58.8659 69.1076 58.5732 69.249C58.2708 69.3954 57.957 69.5165 57.635 69.6112C56.9829 69.8167 56.3013 69.9074 55.6206 69.8793C54.9299 69.8478 54.2527 69.6861 53.6247 69.4028C53.0266 69.1313 52.4728 68.7726 51.9813 68.3382C51.0768 67.52 50.3165 66.5555 49.7315 65.4841C49.4412 64.9757 49.178 64.4521 48.9431 63.9154C48.8265 63.6489 48.7138 63.3812 48.6101 63.1106C48.5039 62.8398 48.416 62.5804 48.3183 62.3147C47.5533 60.2033 46.9283 58.0424 46.4473 55.846C44.5562 47.0412 44.8986 37.8789 47.4433 29.1903C47.5323 28.8633 47.639 28.5408 47.7422 28.2171C47.8478 27.8942 47.9458 27.5688 48.0597 27.2483C48.2893 26.608 48.5106 25.965 48.7678 25.3359C49.2567 24.0686 49.819 22.8353 50.3999 21.6308C50.8666 20.6712 51.3917 19.7407 51.9723 18.8445C52.2123 18.4846 52.4306 18.1683 52.6345 17.8947C52.8449 17.6248 53.0358 17.3949 53.2087 17.2005C53.712 16.6347 53.8361 16.7179 53.6264 17.3293C53.574 17.4822 53.5005 17.6682 53.4068 17.8853C53.3111 18.1012 53.2004 18.3509 53.0748 18.6345C52.9487 18.9168 52.8037 19.2286 52.6398 19.5698C52.4827 19.914 52.3133 20.2897 52.1231 20.6909C51.1376 22.8142 50.2687 24.9886 49.5202 27.2044C47.8088 32.2668 46.9017 37.5582 46.8321 42.8843C46.7439 48.1884 47.5139 53.4624 49.1123 58.5019C49.2258 58.8463 49.3399 59.1922 49.4544 59.5396C49.5791 59.8831 49.7041 60.2275 49.8294 60.5729C49.9493 60.9199 50.0951 61.2577 50.2272 61.6005C50.3626 61.9431 50.4943 62.2869 50.6368 62.6058C51.1635 63.8596 51.8709 65.028 52.7367 66.0741C53.3949 66.8412 54.1887 67.4252 55.0432 67.6476C55.4746 67.7557 55.9239 67.7782 56.3658 67.7137C56.5964 67.6796 56.8239 67.626 57.0459 67.5534C57.2713 67.4858 57.4901 67.397 57.6994 67.2884C57.9196 67.1756 58.1326 67.049 58.3371 66.9092L58.9923 66.4344C59.2036 66.2642 59.4168 66.0962 59.6258 65.9229C59.8269 65.7397 60.0348 65.5644 60.231 65.3756C61.0202 64.6188 61.7298 63.7832 62.3486 62.8822C63.5913 61.0649 64.4904 59.0374 65.0005 56.9018C65.2557 55.832 65.4229 54.744 65.5004 53.6489C65.5821 52.5675 65.5554 51.4819 65.4207 50.4083L65.3771 50.1149L65.3548 49.9683L65.3293 49.8362C65.296 49.6625 65.2529 49.4909 65.2005 49.3223C65.1009 48.9982 64.9593 48.6891 64.7792 48.4027C64.6179 48.1437 64.41 47.9172 64.1658 47.7345C64.0577 47.6534 63.9394 47.5867 63.8139 47.5361C63.6969 47.4857 63.573 47.4527 63.4461 47.4382C63.3183 47.42 63.1883 47.4205 63.0602 47.4397C62.9212 47.4576 62.7847 47.4917 62.6533 47.5412C62.3524 47.6596 62.0715 47.8243 61.8208 48.0294C61.538 48.2594 61.2791 48.5175 61.0481 48.7995C60.8046 49.0942 60.583 49.4061 60.3851 49.7328C59.976 50.4226 59.6306 51.1478 59.3534 51.8993C59.2069 52.2832 59.0703 52.6752 58.9401 53.0744C58.8122 53.4707 58.6918 53.8692 58.5789 54.2701C58.1359 55.8833 57.8175 57.5268 57.6265 59.1861C57.288 62.1652 57.2954 65.1697 57.6486 68.1394C58.0043 71.1273 58.6266 74.0745 59.508 76.9459C59.9453 78.3863 60.4341 79.8108 60.9745 81.2193C61.2467 81.922 61.525 82.6221 61.8271 83.3137L62.2755 84.353L62.7456 85.3832C63.0531 86.0728 63.3961 86.7468 63.7213 87.4288C64.067 88.1012 64.3981 88.7809 64.7588 89.4463C65.4594 90.7874 66.2082 92.1049 66.9664 93.4173C69.4071 97.5948 71.8059 101.496 73.6683 105.16C74.526 106.844 74.0165 107.042 72.6756 105.32C70.8081 102.861 68.9152 100.226 67.1398 97.517C65.6762 95.2923 64.3195 92.9053 63.0333 90.5135C63.0185 90.5129 63.0049 90.5122 62.989 90.5101Z" fill="#615FFF"/>
<path d="M71.745 89.1727C71.7233 90.7708 71.8254 92.3667 72.0505 93.9463C72.1217 94.3641 72.1889 94.7843 72.2668 95.203C72.359 95.6195 72.4566 96.035 72.5656 96.4461C73.07 98.2171 73.7164 99.9621 74.3962 101.709L75.4348 104.332C75.7825 105.207 76.1412 106.084 76.4679 106.971L76.4727 106.985C76.5851 107.29 76.5711 107.629 76.4338 107.926C76.2965 108.224 76.0471 108.457 75.7405 108.572C75.5467 108.644 75.3385 108.667 75.1348 108.639C74.931 108.611 74.738 108.532 74.5731 108.411L72.4426 106.82C70.1363 105.119 67.8289 103.414 65.5283 101.691C63.2283 99.9675 60.935 98.2262 58.679 96.4162C58.0037 95.8592 57.3596 95.2655 56.7497 94.6377C56.1611 94.0514 55.9224 93.5034 55.8849 93.0443C55.8333 92.374 56.5311 92.3116 57.4915 92.9493C58.1215 93.3747 58.7253 93.8375 59.2996 94.3352C61.9733 96.5691 64.7899 98.6269 67.732 100.496C68.5439 101.017 69.4109 101.53 70.1272 102.138C71.9846 103.712 74.0009 105.097 75.9763 106.53L74.2831 107.816C74.0774 107.288 73.8801 106.758 73.7004 106.221C72.9829 104.105 72.144 102.013 71.4641 99.8447C70.8388 97.9005 70.3656 95.9092 70.0486 93.8885C69.752 91.8636 69.633 89.8148 69.6929 87.7653C69.7064 87.3592 69.7295 86.9591 69.7646 86.5671C69.8123 86.1762 69.8736 85.794 69.9483 85.4205C70.0888 84.6969 70.3175 83.9922 70.6291 83.3224C70.7695 83.0241 70.9569 82.8962 71.129 82.9331C71.2967 82.9696 71.4666 83.1714 71.5225 83.5289C71.5736 84.0328 71.5951 84.5465 71.626 85.0616C71.6604 85.5765 71.6793 86.0945 71.6902 86.6096C71.7135 87.0315 71.711 87.4579 71.701 87.8863L71.693 88.2077L71.6965 88.5277C71.7002 88.7411 71.7038 88.9541 71.7074 89.1669L71.745 89.1727Z" fill="#615FFF"/>
</g>
<defs>
<clipPath id="clip0_1_644">
<rect width="90" height="89" fill="white" transform="translate(0 63.6396) rotate(-45)"/>
</clipPath>
</defs>
</svg>