<svg preserveAspectRatio="none" width="100%" height="100%" overflow="visible" style="display: block;" viewBox="0 0 10 13" fill="none" xmlns="http://www.w3.org/2000/svg">
<g id="Edit 1">
<path id="Vector" d="M4.43683 10.7633L4.1639 10.0648L4.43683 10.7633ZM1.73257 11.2826L1.35757 11.9321L1.35757 11.9321L1.73257 11.2826ZM0.830153 8.68102L0.0887031 8.79395L0.830153 8.68102ZM1.15702 6.94617L1.80654 7.32117L1.15702 6.94617ZM0.767585 7.77102L0.0305528 7.63215L0.0305528 7.63215L0.767585 7.77102ZM5.77582 9.61284L6.42534 9.98784L5.77582 9.61284ZM5.2562 10.3625L5.74498 10.9314L5.74498 10.9314L5.2562 10.3625ZM3.68931 2.56012L3.03979 2.18512L3.68931 2.56012ZM8.30811 5.22678L7.65859 4.85178L5.1263 9.23784L5.77582 9.61284L6.42534 9.98784L8.95763 5.60178L8.30811 5.22678ZM1.15702 6.94617L1.80654 7.32117L4.33883 2.93512L3.68931 2.56012L3.03979 2.18512L0.507499 6.57117L1.15702 6.94617ZM4.43683 10.7633L4.1639 10.0648C3.42565 10.3532 2.94754 10.538 2.58486 10.6227C2.24178 10.7029 2.14802 10.6565 2.10757 10.6331L1.73257 11.2826L1.35757 11.9321C1.87209 12.2292 2.41403 12.203 2.92612 12.0834C3.41862 11.9683 4.01516 11.7333 4.70976 11.4619L4.43683 10.7633ZM0.830153 8.68102L0.0887031 8.79395C0.200986 9.53118 0.295702 10.1653 0.442299 10.6494C0.594732 11.1527 0.843039 11.6351 1.35757 11.9321L1.73257 11.2826L2.10757 10.6331C2.06711 10.6098 1.98003 10.5518 1.8779 10.2146C1.76994 9.85811 1.69094 9.35166 1.5716 8.56809L0.830153 8.68102ZM1.15702 6.94617L0.507499 6.57117C0.301474 6.92802 0.101707 7.2545 0.0305528 7.63215L0.767585 7.77102L1.50462 7.90988C1.51755 7.84125 1.54937 7.76659 1.80654 7.32117L1.15702 6.94617ZM0.830153 8.68102L1.5716 8.56809C1.49416 8.05963 1.49169 7.97852 1.50462 7.90988L0.767585 7.77102L0.0305528 7.63215C-0.0406016 8.00981 0.026662 8.38659 0.0887031 8.79395L0.830153 8.68102ZM5.77582 9.61284L5.1263 9.23784C4.86914 9.68326 4.8204 9.74815 4.76742 9.79366L5.2562 10.3625L5.74498 10.9314C6.03646 10.6809 6.21931 10.3447 6.42534 9.98784L5.77582 9.61284ZM4.43683 10.7633L4.70976 11.4619C5.09356 11.312 5.4535 11.1818 5.74498 10.9314L5.2562 10.3625L4.76743 9.79366C4.71445 9.83918 4.64296 9.87759 4.1639 10.0648L4.43683 10.7633ZM7.33204 1.58405L6.95704 2.23357C7.51974 2.55844 7.87562 2.76575 8.11645 2.9516C8.34005 3.12415 8.37157 3.20979 8.38353 3.25444L9.10798 3.06032L9.83242 2.86621C9.70144 2.37739 9.38933 2.03916 9.03286 1.76408C8.69363 1.50229 8.23301 1.2382 7.70704 0.934529L7.33204 1.58405ZM8.30811 5.22678L8.95763 5.60178C9.2613 5.07581 9.52815 4.61679 9.69105 4.22046C9.86221 3.804 9.9634 3.35503 9.83242 2.86621L9.10798 3.06032L8.38353 3.25444C8.3955 3.29909 8.41102 3.38901 8.30366 3.65024C8.18801 3.93161 7.98346 4.28909 7.65859 4.85178L8.30811 5.22678ZM7.33204 1.58405L7.70704 0.934529C7.18107 0.63086 6.72205 0.364005 6.32572 0.201114C5.90926 0.0299467 5.46029 -0.071242 4.97147 0.0597361L5.16558 0.78418L5.3597 1.50862C5.40435 1.49666 5.49427 1.48114 5.75551 1.5885C6.03688 1.70415 6.39435 1.9087 6.95704 2.23357L7.33204 1.58405ZM3.68931 2.56012L4.33883 2.93512C4.6637 2.37242 4.87101 2.01654 5.05686 1.77571C5.22941 1.55211 5.31505 1.52059 5.3597 1.50862L5.16558 0.78418L4.97147 0.0597361C4.48265 0.190714 4.14443 0.502833 3.86934 0.8593C3.60756 1.19853 3.34346 1.65915 3.03979 2.18512L3.68931 2.56012ZM8.30811 5.22678L8.68311 4.57726L4.06431 1.9106L3.68931 2.56012L3.31431 3.20963L7.93311 5.8763L8.30811 5.22678Z" fill="var(--stroke-0, white)"/>
</g>
</svg>
