<svg preserveAspectRatio="none" width="100%" height="100%" overflow="visible" style="display: block;" viewBox="0 0 21 18" fill="none" xmlns="http://www.w3.org/2000/svg">
<g id="Menu Hamburger">
<g id="Vector">
<path d="M1 0C0.447715 0 0 0.447715 0 1C0 1.55228 0.447715 2 1 2H19.6667C20.219 2 20.6667 1.55228 20.6667 1C20.6667 0.447715 20.219 0 19.6667 0H1Z" fill="var(--fill-0, #052E16)"/>
<path d="M1 8C0.447715 8 0 8.44772 0 9C0 9.55229 0.447715 10 1 10H19.6667C20.219 10 20.6667 9.55229 20.6667 9C20.6667 8.44772 20.219 8 19.6667 8H1Z" fill="var(--fill-0, #052E16)"/>
<path d="M1 16C0.447715 16 0 16.4477 0 17C0 17.5523 0.447715 18 1 18H19.6667C20.219 18 20.6667 17.5523 20.6667 17C20.6667 16.4477 20.219 16 19.6667 16H1Z" fill="var(--fill-0, #052E16)"/>
</g>
</g>
</svg>
