<svg width="32" height="32" viewBox="0 0 32 32" fill="none" xmlns="http://www.w3.org/2000/svg">
<path d="M6.7481 26.7268L7.33588 25.9178L6.7481 26.7268ZM5.27322 25.2519L6.08224 24.6641L5.27322 25.2519ZM26.7268 25.2519L25.9178 24.6641L26.7268 25.2519ZM25.2519 26.7268L24.6641 25.9178L25.2519 26.7268ZM25.2519 5.27322L24.6641 6.08224L25.2519 5.27322ZM26.7268 6.7481L25.9178 7.33588L26.7268 6.7481ZM6.7481 5.27322L7.33588 6.08224L6.7481 5.27322ZM5.27322 6.7481L6.08224 7.33588L5.27322 6.7481ZM16 28V27C13.4779 27 11.6667 26.9986 10.2641 26.8467C8.88018 26.6967 8.01322 26.4099 7.33588 25.9178L6.7481 26.7268L6.16031 27.5358C7.23541 28.3169 8.49459 28.6667 10.0486 28.835C11.584 29.0014 13.5225 29 16 29V28ZM4 16H3C3 18.4775 2.99863 20.416 3.16497 21.9514C3.33334 23.5054 3.6831 24.7646 4.4642 25.8397L5.27322 25.2519L6.08224 24.6641C5.59012 23.9868 5.30327 23.1198 5.15333 21.7359C5.00137 20.3333 5 18.5221 5 16H4ZM6.7481 26.7268L7.33588 25.9178C6.85481 25.5682 6.43176 25.1452 6.08224 24.6641L5.27322 25.2519L4.4642 25.8397C4.93708 26.4905 5.50945 27.0629 6.16031 27.5358L6.7481 26.7268ZM28 16H27C27 18.5221 26.9986 20.3333 26.8467 21.7359C26.6967 23.1198 26.4099 23.9868 25.9178 24.6641L26.7268 25.2519L27.5358 25.8397C28.3169 24.7646 28.6667 23.5054 28.835 21.9514C29.0014 20.416 29 18.4775 29 16H28ZM16 28V29C18.4775 29 20.416 29.0014 21.9514 28.835C23.5054 28.6667 24.7646 28.3169 25.8397 27.5358L25.2519 26.7268L24.6641 25.9178C23.9868 26.4099 23.1198 26.6967 21.7359 26.8467C20.3333 26.9986 18.5221 27 16 27V28ZM26.7268 25.2519L25.9178 24.6641C25.5682 25.1452 25.1452 25.5682 24.6641 25.9178L25.2519 26.7268L25.8397 27.5358C26.4905 27.0629 27.0629 26.4905 27.5358 25.8397L26.7268 25.2519ZM16 4V5C18.5221 5 20.3333 5.00137 21.7359 5.15333C23.1198 5.30327 23.9868 5.59012 24.6641 6.08224L25.2519 5.27322L25.8397 4.4642C24.7646 3.6831 23.5054 3.33334 21.9514 3.16497C20.416 2.99863 18.4775 3 16 3V4ZM28 16H29C29 13.5225 29.0014 11.584 28.835 10.0486C28.6667 8.49459 28.3169 7.23541 27.5358 6.16031L26.7268 6.7481L25.9178 7.33588C26.4099 8.01322 26.6967 8.88018 26.8467 10.2641C26.9986 11.6667 27 13.4779 27 16H28ZM25.2519 5.27322L24.6641 6.08224C25.1452 6.43176 25.5682 6.85481 25.9178 7.33588L26.7268 6.7481L27.5358 6.16031C27.0629 5.50945 26.4905 4.93708 25.8397 4.4642L25.2519 5.27322ZM16 4V3C13.5225 3 11.584 2.99863 10.0486 3.16497C8.49459 3.33334 7.23541 3.6831 6.16031 4.4642L6.7481 5.27322L7.33588 6.08224C8.01322 5.59012 8.88018 5.30327 10.2641 5.15333C11.6667 5.00137 13.4779 5 16 5V4ZM4 16H5C5 13.4779 5.00137 11.6667 5.15333 10.2641C5.30327 8.88018 5.59012 8.01322 6.08224 7.33588L5.27322 6.7481L4.4642 6.16031C3.6831 7.23541 3.33334 8.49459 3.16497 10.0486C2.99863 11.584 3 13.5225 3 16H4ZM6.7481 5.27322L6.16031 4.4642C5.50945 4.93708 4.93708 5.50945 4.4642 6.16031L5.27322 6.7481L6.08224 7.33588C6.43175 6.85481 6.85481 6.43175 7.33588 6.08224L6.7481 5.27322ZM12 16H11C11 18.7614 13.2386 21 16 21V20V19C14.3431 19 13 17.6569 13 16H12ZM16 20V21C18.7614 21 21 18.7614 21 16H20H19C19 17.6569 17.6569 19 16 19V20ZM20 16H21C21 13.2386 18.7614 11 16 11V12V13C17.6569 13 19 14.3431 19 16H20ZM16 12V11C13.2386 11 11 13.2386 11 16H12H13C13 14.3431 14.3431 13 16 13V12Z" fill="#052E16"/>
<path d="M21.3334 9.33333C21.3334 10.0697 21.9303 10.6667 22.6667 10.6667C23.4031 10.6667 24 10.0697 24 9.33333C24 8.59695 23.4031 8 22.6667 8C21.9303 8 21.3334 8.59695 21.3334 9.33333Z" fill="#181D27"/>
</svg>
