<svg width="24" height="24" viewBox="0 0 24 24" fill="none" xmlns="http://www.w3.org/2000/svg">
<g clip-path="url(#clip0_9124_73)">
<path d="M24 12C24 18.6274 18.6274 24 12 24C5.37258 24 0 18.6274 0 12C0 5.37258 5.37258 0 12 0C18.6274 0 24 5.37258 24 12ZM2.04 12C2.04 17.5008 6.49924 21.96 12 21.96C17.5008 21.96 21.96 17.5008 21.96 12C21.96 6.49924 17.5008 2.04 12 2.04C6.49924 2.04 2.04 6.49924 2.04 12Z" fill="white"/>
<path d="M12 22.98C12 23.5433 12.4575 24.0045 13.0188 23.9567C14.2455 23.8521 15.451 23.5593 16.5922 23.0866C18.0481 22.4835 19.371 21.5996 20.4853 20.4853C21.5996 19.371 22.4835 18.0481 23.0866 16.5922C23.5593 15.451 23.8521 14.2455 23.9567 13.0188C24.0045 12.4575 23.5433 12 22.98 12C22.4167 12 21.9654 12.4578 21.9078 13.0182C21.8093 13.9768 21.572 14.9179 21.2018 15.8115C20.7013 17.0199 19.9677 18.1179 19.0428 19.0428C18.1179 19.9677 17.0199 20.7013 15.8115 21.2018C14.9179 21.572 13.9768 21.8093 13.0182 21.9078C12.4578 21.9654 12 22.4167 12 22.98Z" fill="black"/>
</g>
<defs>
<clipPath id="clip0_9124_73">
<rect width="24" height="24" fill="white"/>
</clipPath>
</defs>
</svg>
