<svg preserveAspectRatio="none" width="100%" height="100%" overflow="visible" style="display: block;" viewBox="0 0 14 14" fill="none" xmlns="http://www.w3.org/2000/svg">
<g id="Upload">
<path id="Vector" d="M3.5619 12.709L3.44457 13.4497L3.44458 13.4497L3.5619 12.709ZM0.791054 9.93811L1.53182 9.82079L1.53182 9.82079L0.791054 9.93811ZM12.709 9.93811L13.4497 10.0554L13.4497 10.0554L12.709 9.93811ZM9.93813 12.709L10.0555 13.4497L10.0555 13.4497L9.93813 12.709ZM12.6833 5.6329C12.4345 5.30171 11.9644 5.23489 11.6332 5.48366C11.302 5.73242 11.2352 6.20257 11.4839 6.53377L12.0836 6.08333L12.6833 5.6329ZM2.01611 6.53377C2.26488 6.20257 2.19806 5.73242 1.86687 5.48366C1.53568 5.23489 1.06553 5.30171 0.816763 5.6329L1.41644 6.08333L2.01611 6.53377ZM6.00002 10.0833C6.00002 10.4975 6.3358 10.8333 6.75002 10.8333C7.16423 10.8333 7.50002 10.4975 7.50002 10.0833H6.75002H6.00002ZM3.49567 2.9507C3.23832 3.27527 3.29281 3.747 3.61738 4.00435C3.94195 4.2617 4.41368 4.20721 4.67103 3.88264L4.08335 3.41667L3.49567 2.9507ZM5.01525 2.24135L4.42756 1.77538L4.42756 1.77538L5.01525 2.24135ZM8.48479 2.24135L9.07247 1.77538L8.48479 2.24135ZM8.829 3.88264C9.08635 4.20721 9.55808 4.2617 9.88265 4.00435C10.2072 3.747 10.2617 3.27527 10.0044 2.9507L9.41668 3.41667L8.829 3.88264ZM6.58291 0.76326L6.4649 0.0226014L6.4649 0.0226017L6.58291 0.76326ZM6.91713 0.76326L7.03514 0.0226018L7.03513 0.0226015L6.91713 0.76326ZM12.75 8.08333H12V8.75H12.75H13.5V8.08333H12.75ZM8.75002 12.75V12H4.75002V12.75V13.5H8.75002V12.75ZM0.750015 8.75H1.50002V8.08333H0.750015H1.5378e-05V8.75H0.750015ZM4.75002 12.75V12C4.10202 12 3.86534 11.9977 3.67923 11.9682L3.5619 12.709L3.44458 13.4497C3.77668 13.5023 4.15934 13.5 4.75002 13.5V12.75ZM0.750015 8.75H1.5378e-05C1.5378e-05 9.34068 -0.00231222 9.72334 0.050288 10.0554L0.791054 9.93811L1.53182 9.82079C1.50234 9.63467 1.50002 9.398 1.50002 8.75H0.750015ZM3.5619 12.709L3.67923 11.9682C2.57384 11.7931 1.7069 10.9262 1.53182 9.82079L0.791054 9.93811L0.050288 10.0554C0.327022 11.8027 1.69735 13.173 3.44457 13.4497L3.5619 12.709ZM12.75 8.75H12C12 9.398 11.9977 9.63467 11.9682 9.82079L12.709 9.93811L13.4497 10.0554C13.5023 9.72333 13.5 9.34068 13.5 8.75H12.75ZM8.75002 12.75V13.5C9.34069 13.5 9.72335 13.5023 10.0555 13.4497L9.93813 12.709L9.82081 11.9682C9.63469 11.9977 9.39801 12 8.75002 12V12.75ZM12.709 9.93811L11.9682 9.82079C11.7931 10.9262 10.9262 11.7931 9.8208 11.9682L9.93813 12.709L10.0555 13.4497C11.8027 13.173 13.173 11.8027 13.4497 10.0554L12.709 9.93811ZM12.75 8.08333H13.5C13.5 7.16495 13.1959 6.31543 12.6833 5.6329L12.0836 6.08333L11.4839 6.53377C11.8082 6.96545 12 7.50091 12 8.08333H12.75ZM0.750015 8.08333H1.50002C1.50002 7.50091 1.69186 6.96545 2.01611 6.53377L1.41644 6.08333L0.816763 5.6329C0.304098 6.31543 1.5378e-05 7.16495 1.5378e-05 8.08333H0.750015ZM6.75002 10.0833H7.50002V1.41667H6.75002H6.00002V10.0833H6.75002ZM4.08335 3.41667L4.67103 3.88264L5.60293 2.70732L5.01525 2.24135L4.42756 1.77538L3.49567 2.9507L4.08335 3.41667ZM8.48479 2.24135L7.8971 2.70732L8.829 3.88264L9.41668 3.41667L10.0044 2.9507L9.07247 1.77538L8.48479 2.24135ZM5.01525 2.24135L5.60293 2.70732C5.9859 2.22432 6.23403 1.91323 6.43928 1.70719C6.53719 1.6089 6.60411 1.5568 6.64845 1.52913C6.66925 1.51614 6.68273 1.51005 6.68981 1.50728C6.69641 1.50469 6.69959 1.50413 6.70091 1.50392L6.58291 0.76326L6.4649 0.0226017C6.00495 0.0958834 5.65948 0.364575 5.37658 0.648577C5.09701 0.929222 4.78777 1.3211 4.42756 1.77538L5.01525 2.24135ZM8.48479 2.24135L9.07247 1.77538C8.71227 1.3211 8.40302 0.929223 8.12346 0.648578C7.84055 0.364576 7.49508 0.0958836 7.03514 0.0226018L6.91713 0.76326L6.79912 1.50392C6.80044 1.50413 6.80363 1.50469 6.81023 1.50728C6.8173 1.51005 6.83078 1.51614 6.85158 1.52913C6.89592 1.5568 6.96285 1.6089 7.06075 1.70719C7.266 1.91323 7.51413 2.22432 7.8971 2.70732L8.48479 2.24135ZM6.58291 0.76326L6.70091 1.50392C6.71751 1.50127 6.73387 1.5 6.75002 1.5L6.75002 0.75L6.75002 0C6.65454 -1.27453e-08 6.55927 0.00756622 6.4649 0.0226014L6.58291 0.76326ZM6.75002 0.75L6.75002 1.5C6.76617 1.5 6.78252 1.50127 6.79912 1.50392L6.91713 0.76326L7.03513 0.0226015C6.94077 0.00756627 6.84549 1.27453e-08 6.75002 0L6.75002 0.75ZM6.75002 1.41667H7.50002V0.75H6.75002H6.00002V1.41667H6.75002Z" fill="var(--stroke-0, #052E16)"/>
</g>
</svg>
