<svg preserveAspectRatio="none" width="100%" height="100%" overflow="visible" style="display: block;" viewBox="0 0 31 23" fill="none" xmlns="http://www.w3.org/2000/svg">
<g id="Video 1">
<path id="Vector" d="M21.8068 5.69802C22.0833 6.98568 22.0833 8.711 22.0833 11.4167C22.0833 14.1216 22.0833 15.8467 21.807 17.1342M21.8068 5.69802C21.7018 5.20878 21.5568 4.78271 21.3567 4.39006C20.7176 3.13565 19.6977 2.11578 18.4433 1.47662C17.0172 0.75 15.1503 0.75 11.4167 0.75C7.68298 0.75 5.81614 0.75 4.39006 1.47662C3.13565 2.11578 2.11578 3.13565 1.47662 4.39006C0.75 5.81614 0.75 7.68298 0.75 11.4167C0.75 15.1503 0.75 17.0172 1.47662 18.4433C2.11578 19.6977 3.13565 20.7176 4.39006 21.3567C5.81614 22.0833 7.68298 22.0833 11.4167 22.0833C15.1503 22.0833 17.0172 22.0833 18.4433 21.3567C19.6977 20.7176 20.7176 19.6977 21.3567 18.4433C21.5569 18.0503 21.702 17.6239 21.807 17.1342M21.8068 5.69802L22.0833 5.57901L22.6145 5.34691C25.985 3.87415 27.6702 3.13777 28.8768 3.92728C30.0833 4.71678 30.0833 6.55587 30.0833 10.234V12.5993C30.0833 16.2775 30.0833 18.1166 28.8768 18.9061C27.6702 19.6956 25.985 18.9592 22.6145 17.4864L22.0833 17.2543L21.807 17.1342M7.41667 11.4167C7.41667 9.03565 7.41667 7.84513 7.88575 7.15692C8.2949 6.55662 8.92379 6.16959 9.61607 6.09203C10.4097 6.0031 11.377 6.59836 13.3114 7.78887C15.2458 8.97938 16.2131 9.57464 16.5377 10.3518C16.8208 11.0296 16.8208 11.8037 16.5377 12.4816C16.2131 13.2587 15.2458 13.854 13.3114 15.0445C11.377 16.235 10.4097 16.8302 9.61607 16.7413C8.92379 16.6637 8.2949 16.2767 7.88575 15.6764C7.41667 14.9882 7.41667 13.7977 7.41667 11.4167Z" stroke="var(--stroke-0, #FAF5FF)" stroke-width="1.5"/>
</g>
</svg>
